<svg width="30" height="25" fill="none" xmlns="http://www.w3.org/2000/svg"><path d="M29.799 12.668L25.439 1.86l-.299-.597-.552.113h-.016l-8.51 1.862V.313h-2.125V3.71L4.264 6.035.201 16.918c-.05.125-.076.26-.076.395 0 3.096 3.259 4.25 5.313 4.25 2.053 0 5.312-1.154 5.312-4.25 0-.136-.026-.27-.076-.395L6.888 7.453l7.05-1.566v16.738h-2.815v2.2h7.754v-2.2h-2.814V5.415l6.766-1.504-3.503 8.757c-.05.125-.076.26-.076.395 0 3.096 3.259 4.25 5.313 4.25 2.053 0 5.312-1.154 5.312-4.25 0-.136-.026-.27-.076-.395zm-24.361 6.77c-1 0-3.024-.48-3.179-1.944l3.179-7.946 3.178 7.946c-.155 1.463-2.179 1.944-3.178 1.944zm19.125-4.25c-1 0-3.024-.48-3.179-1.945l3.178-7.945 3.179 7.945c-.155 1.464-2.179 1.944-3.178 1.944z" fill="#1595CD"/></svg>